<?xml version="1.0" encoding="UTF-8" standalone="no"?>
<svg
   width="132"
   height="32"
   viewBox="0 0 132 32"
   fill="none"
   version="1.1"
   id="svg9"
   sodipodi:docname="cosmian-logo-doc-black.svg"
   inkscape:version="1.3 (0e150ed, 2023-07-21)"
   xmlns:inkscape="http://www.inkscape.org/namespaces/inkscape"
   xmlns:sodipodi="http://sodipodi.sourceforge.net/DTD/sodipodi-0.dtd"
   xmlns="http://www.w3.org/2000/svg"
   xmlns:svg="http://www.w3.org/2000/svg">
  <defs
     id="defs9" />
  <sodipodi:namedview
     id="namedview9"
     pagecolor="#ffffff"
     bordercolor="#000000"
     borderopacity="0.25"
     inkscape:showpageshadow="2"
     inkscape:pageopacity="0.0"
     inkscape:pagecheckerboard="0"
     inkscape:deskcolor="#d1d1d1"
     inkscape:zoom="3.9841567"
     inkscape:cx="99.017189"
     inkscape:cy="-5.7728653"
     inkscape:window-width="2080"
     inkscape:window-height="985"
     inkscape:window-x="543"
     inkscape:window-y="25"
     inkscape:window-maximized="0"
     inkscape:current-layer="svg9" />
  <path
     d="M98.6121 7.57616C98.6121 6.5428 97.8744 5.80469 96.841 5.80469C95.8076 5.80469 95.069 6.5428 95.069 7.57616C95.069 8.60951 95.8076 9.34763 96.841 9.34763C97.8744 9.34763 98.6121 8.60951 98.6121 7.57616Z"
     fill="#202020"
     id="path1" />
  <path
     d="M95.4383 22.1906H98.3172V10.8238H95.4383V22.1906Z"
     fill="#202020"
     id="path2" />
  <path
     d="M127.476 22.1876H124.598V15.9875C124.598 14.0684 123.712 13.0351 122.015 13.0351C120.317 13.0351 119.062 14.2898 119.062 16.2089V22.1876H116.183V10.8207H119.062V12.4446C119.726 11.2636 120.981 10.5255 122.679 10.5255C125.631 10.5255 127.476 12.4446 127.476 15.766V22.1876Z"
     fill="#202020"
     id="path3" />
  <path
     fill-rule="evenodd"
     clip-rule="evenodd"
     d="M113.081 10.9695V22.1887H110.203V20.6387C109.465 21.8935 108.062 22.5577 106.512 22.5577C103.338 22.5577 100.977 19.9006 100.977 16.5792C100.903 13.2577 103.338 10.5266 106.512 10.6005C108.062 10.6005 109.465 11.2647 110.203 12.5196V10.9695H113.081ZM106.881 13.0362C105.922 13.0362 105.109 13.3315 104.52 14.0696C103.929 14.7338 103.633 15.5458 103.633 16.5792C103.633 18.4982 104.962 20.0482 106.881 20.0482C108.8 20.0482 110.129 18.6458 110.129 16.5792C110.129 14.3648 108.8 13.0362 106.881 13.0362Z"
     fill="#202020"
     id="path4" />
  <path
     d="M92.1914 22.1876H89.3868V15.9875C89.3868 14.0684 88.5747 13.0351 87.0985 13.0351C85.6223 13.0351 84.5153 14.3637 84.5153 16.2828V22.2613H81.6364V16.0613C81.6364 14.1422 80.8243 13.1088 79.3481 13.1088C78.6104 13.1088 77.9462 13.4041 77.5035 13.9946C77.0607 14.6589 76.7649 15.397 76.7649 16.2828V22.2613H73.8868V10.8207H76.7649V12.4446C77.4291 11.2636 78.6104 10.5255 80.0131 10.5255C81.7843 10.5255 83.1126 11.3374 83.8511 12.7398C84.5888 11.3374 85.918 10.5255 87.6892 10.5255C90.4938 10.5255 92.1914 12.4446 92.1914 15.766V22.1876Z"
     fill="#202020"
     id="path5" />
  <path
     d="M66.1383 20.1206C64.6621 20.1206 63.4073 19.4563 62.8168 18.4968L60.5287 19.6039C60.9716 20.342 61.7096 21.0063 62.6692 21.523C63.6287 22.0396 64.7359 22.3349 65.9907 22.3349C69.0169 22.3349 71.305 20.8587 71.305 18.7182C71.305 17.0206 70.124 15.9872 67.7621 15.4706L66.0644 15.1015C64.293 14.7325 63.8502 14.4372 63.8502 13.7729C63.8502 13.1086 64.7359 12.6657 65.9907 12.6657C67.2454 12.6657 68.5002 13.2562 69.0169 14.0681L71.1574 12.8871C70.7145 12.149 70.0502 11.6324 69.1645 11.1157C68.2788 10.599 67.2454 10.3776 66.1383 10.3776C63.2597 10.3776 61.193 11.8538 61.193 13.9943C61.193 15.692 62.3739 16.7253 64.7359 17.242L66.4335 17.6111C68.205 18.0539 68.6479 18.3492 68.6479 19.0134C68.6479 19.6777 67.5406 20.1206 66.1383 20.1206Z"
     fill="#202020"
     id="path6" />
  <path
     fill-rule="evenodd"
     clip-rule="evenodd"
     d="M52.8528 10.4514C56.3219 10.4514 58.9052 13.0349 58.9052 16.4301C58.9052 19.8254 56.3219 22.4088 52.8528 22.4088C49.4574 22.4825 46.7265 19.7516 46.8003 16.4301C46.7265 13.1086 49.4574 10.4514 52.8528 10.4514ZM52.8528 13.0349C50.9337 13.0349 49.6051 14.511 49.6051 16.4301C49.6051 17.4635 49.9003 18.2016 50.4908 18.9397C51.1551 19.5302 51.8933 19.8992 52.8528 19.8992C53.8861 19.8992 54.6242 19.6039 55.2147 18.9397C55.879 18.2753 56.1742 17.4635 56.1742 16.4301C56.1742 14.511 54.8456 13.0349 52.8528 13.0349Z"
     fill="#202020"
     id="path7" />
  <path
     d="M45.2485 13.1086C44.2152 11.4848 42.2961 10.4514 40.1556 10.4514C36.6865 10.4514 34.0293 13.1086 34.1031 16.5777C34.0293 19.8992 36.7603 22.6302 40.1556 22.5564C42.3698 22.5564 44.2152 21.523 45.2485 19.8992L42.8866 18.4968C42.2961 19.3825 41.3366 19.8992 40.1556 19.8992C39.196 19.8992 38.4579 19.6039 37.7936 18.9397C37.2031 18.2016 36.9079 17.4635 36.9079 16.4301C36.9079 14.511 38.2365 13.0349 40.1556 13.0349C41.3366 13.0349 42.2961 13.6254 42.8866 14.4372L45.2485 13.1086Z"
     fill="#202020"
     id="path8" />
  <circle
     cx="15.8303"
     cy="16.2209"
     r="13.1897"
     fill="#F14611"
     id="circle8" />
  <path
     d="M19.8221 24.1344H14.208C12.7876 24.1344 11.6039 22.9653 11.6039 21.5624C11.6039 21.4622 11.5024 21.362 11.401 21.362C9.94674 21.362 8.79688 20.1929 8.79688 18.7899V13.2117C8.79688 11.8087 9.98056 10.6396 11.401 10.6396C11.5363 10.6396 11.6039 10.5394 11.6039 10.4392C11.6039 9.03629 12.7876 7.86719 14.208 7.86719H19.8221C21.2425 7.86719 22.4262 9.03629 22.4262 10.4392V10.7732C22.4262 12.1762 21.2425 13.3453 19.8221 13.3453H14.5124C14.4109 13.3453 14.3095 13.4455 14.3095 13.5457V18.4225C14.3095 18.5228 14.4109 18.6229 14.5124 18.6229H19.7882C21.2087 18.6229 22.3923 19.792 22.3923 21.195V21.529C22.4262 22.9653 21.2763 24.1344 19.8221 24.1344ZM14.208 9.1031C13.464 9.1031 12.889 9.70435 12.889 10.4058C12.889 11.2409 12.2127 11.8755 11.401 11.8755C10.657 11.8755 10.082 12.4768 10.082 13.1783V18.7231C10.082 19.458 10.6908 20.0259 11.401 20.0259C12.2465 20.0259 12.889 20.6939 12.889 21.4956C12.889 22.2305 13.4978 22.7983 14.208 22.7983H19.8221C20.5661 22.7983 21.141 22.1971 21.141 21.4956V21.1616C21.141 20.4267 20.5323 19.8588 19.8221 19.8588H14.5124C13.6669 19.8588 13.0243 19.1908 13.0243 18.3891V13.5457C13.0243 12.7106 13.7007 12.076 14.5124 12.076H19.7882C20.5323 12.076 21.1072 11.4747 21.1072 10.7732V10.4392C21.1072 9.70435 20.4985 9.1365 19.7882 9.1365H14.208V9.1031Z"
     fill="white"
     id="path9" />
  <path
     d="m 105.31564,30.098623 v -5.07348 h 2.21204 c 1.59284,0 2.68525,1.000201 2.68525,2.536709 0,1.53657 -1.09241,2.536771 -2.68525,2.536771 z m 1.12657,-0.963993 h 1.02986 c 0.96671,0 1.5998,-0.601544 1.5998,-1.572778 0,-0.971173 -0.63309,-1.572717 -1.5998,-1.572717 h -1.02986 z m 7.60515,1.050954 c -1.53783,0 -2.6644,-1.116189 -2.6644,-2.623732 0,-1.507542 1.12657,-2.62367 2.6644,-2.62367 1.53029,0 2.66382,1.108887 2.66382,2.62367 0,1.514785 -1.13353,2.623732 -2.66382,2.623732 z m 0,-1.000201 c 0.8694,0 1.52334,-0.659539 1.52334,-1.623531 0,-0.963931 -0.65394,-1.623469 -1.52334,-1.623469 -0.87,0 -1.52393,0.659538 -1.52393,1.623469 0,0.963992 0.65393,1.623531 1.52393,1.623531 z m 6.46755,1.000201 c -1.50945,0 -2.63661,-1.094404 -2.63661,-2.623732 0,-1.529267 1.12716,-2.62367 2.64355,-2.62367 0.84161,0 1.5442,0.318877 2.00352,0.898696 l -0.72345,0.695807 c -0.32725,-0.391354 -0.73733,-0.594302 -1.22446,-0.594302 -0.91111,0 -1.5581,0.66678 -1.5581,1.623469 0,0.956751 0.64699,1.623531 1.5581,1.623531 0.48713,0 0.89721,-0.202949 1.22446,-0.601545 l 0.72345,0.695747 c -0.45932,0.587062 -1.16191,0.905999 -2.01046,0.905999 z m 4.95695,0 c -0.77269,0 -1.55173,-0.239159 -1.98267,-0.587062 l 0.38229,-0.884273 c 0.41067,0.311696 1.0229,0.529127 1.60732,0.529127 0.66783,0 0.93891,-0.231914 0.93891,-0.54361 0,-0.949448 -2.83121,-0.297152 -2.83121,-2.181564 0,-0.862487 0.66784,-1.58002 2.05217,-1.58002 0.61223,0 1.23836,0.152196 1.69016,0.449348 l -0.34754,0.891515 c -0.45236,-0.268185 -0.91863,-0.398657 -1.34957,-0.398657 -0.66784,0 -0.92559,0.260943 -0.92559,0.57982 0,0.934965 2.8318,0.28991 2.8318,2.152597 0,0.848004 -0.67478,1.572779 -2.06607,1.572779 z"
     fill="#c4c4c4"
     id="path14"
     style="stroke-width:0.0591221" />
</svg>
