<?xml version="1.0" encoding="utf-8"?>
<!-- Generator: Adobe Illustrator 27.4.0, SVG Export Plug-In . SVG Version: 6.00 Build 0)  -->
<svg version="1.1" id="Layer_1" xmlns="http://www.w3.org/2000/svg" xmlns:xlink="http://www.w3.org/1999/xlink" x="0px" y="0px"
	 viewBox="0 0 697 254" style="enable-background:new 0 0 697 254;" xml:space="preserve">
<path d="M341.5,93.5v52.7h6.7V100h24.7c12.2,0,20.9,10.9,20.9,26.7s-8.7,26.7-20.9,26.7h-35.6c-2.8,0-4.7-1.8-4.7-4.7V89.9
	c0-2.8,1.8-4.7,4.7-4.7h35.6c21.3,0,36.7,17.4,36.7,41.5s-15.4,41.5-36.7,41.5h-47.2v6.5h47.2c24.1,0,43.8-20.7,43.8-48
	s-19.6-48-43.8-48h-35.6c-7.1,0-11.5,4.7-11.5,11.1v58.9c0,6.5,4.5,11.1,11.5,11.1h35.6c15.4,0,28-14.2,28-33.2s-12.6-33.2-28-33.2
	H341.5z M151.1,130.8H90.8c-7.1,0-11.5,4.7-11.5,11.1v21.7c0,6.5,4.5,11.1,11.5,11.1h64c2,0,3.4-1.4,3.4-3.4v-14.4
	c0-2-1.4-3.4-3.4-3.4h-53.3v-8.9H95v15.4h56.5v8.3H90.8c-2.8,0-4.7-1.8-4.7-4.7v-21.7c0-2.8,1.8-4.7,4.7-4.7h63.6
	c2,0,3.4-1.4,3.4-3.4v-14.4c0-2-1.4-3.4-3.4-3.4H90.8c-2.8,0-4.7-1.8-4.7-4.7V89.9c0-2.8,1.8-4.7,4.7-4.7h61v8.3H95v15.2h6.5V100
	h53.3c2,0,3.4-1.4,3.4-3.4V82.4c0-2-1.4-3.6-3.4-3.6h-64c-7.1,0-11.5,4.7-11.5,11.1v21.5c0,6.5,4.5,11.1,11.5,11.1h60.4V130.8z
	 M251.6,85.2h9.9l-33,83.2L194.3,82c-1-2.4-2.4-3.2-5.1-3.2h-16.6c-2,0-3.2,1.4-3.2,3.2c0,0.6,0.2,1.4,0.4,2l35.6,90.7h8.3
	l-35.6-89.5h9.7l34.4,86.7c1,2.4,2,2.8,4.5,2.8h3.6c2.4,0,3.4-0.4,4.5-2.8L269.6,84c0.2-0.6,0.4-1.4,0.4-2c0-1.8-1.2-3.2-3.2-3.2
	h-16.4c-2.6,0-4.1,0.8-5.1,3.2l-21.1,54.3l3.8,9.3L251.6,85.2z M502.8,130.8h-60.4c-7.1,0-11.5,4.7-11.5,11.1v21.7
	c0,6.5,4.5,11.1,11.5,11.1h64c2,0,3.4-1.4,3.4-3.4v-14.4c0-2-1.4-3.4-3.4-3.4h-53.3v-8.9h-6.5v15.4h56.5v8.3h-60.8
	c-2.8,0-4.7-1.8-4.7-4.7v-21.7c0-2.8,1.8-4.7,4.7-4.7H506c2,0,3.4-1.4,3.4-3.4v-14.4c0-2-1.4-3.4-3.4-3.4h-63.6
	c-2.8,0-4.7-1.8-4.7-4.7V89.9c0-2.8,1.8-4.7,4.7-4.7h61v8.3h-56.7v15.2h6.5V100h53.3c2,0,3.4-1.4,3.4-3.4V82.4c0-2-1.4-3.6-3.4-3.6
	h-64c-7.1,0-11.5,4.7-11.5,11.1v21.5c0,6.5,4.5,11.1,11.5,11.1h60.4V130.8z M305.7,78.7h-19.2c-2,0-3.4,1.4-3.4,3.4v89.1
	c0,2,1.4,3.4,3.4,3.4h15.8c2,0,3.4-1.4,3.4-3.4V92.5h-6.9v75.8h-8.9v-83h15.8V78.7z M549.5,78.7l49,68.3c1.2,1.6,3.4,1,3.4-0.6V85.2
	h8.9v83h-8.1l-60.2-85.1c-2.6-3.8-4.1-4.5-6.9-4.5h-3.8c-2,0-3.4,1.4-3.4,3.4v89.1c0,2,1.4,3.4,3.4,3.4h15.8c2,0,3.4-1.4,3.4-3.4
	v-51l-6.9-9.5v57.5h-8.9V85.4l60,84.9c2.6,3.6,4.3,4.5,7.7,4.5h11.3c2,0,3.4-1.4,3.4-3.4V82.2c0-2-1.4-3.4-3.4-3.4h-15.6
	c-2,0-3.4,1.4-3.4,3.4V132l-36.7-53.3H549.5z"/>
</svg>
