<?xml version="1.0" encoding="utf-8"?>
<svg xmlns="http://www.w3.org/2000/svg" viewBox="61 69 116 116">
    <style>.e{fill:#FF6D43;}</style>
    <path class="e" d="M151.1,130.8H90.8c-7.1,0-11.5,4.7-11.5,11.1v21.7c0,6.5,4.5,11.1,11.5,11.1h64c2,0,3.4-1.4,3.4-3.4v-14.4
        c0-2-1.4-3.4-3.4-3.4h-53.3v-8.9H95v15.4h56.5v8.3H90.8c-2.8,0-4.7-1.8-4.7-4.7v-21.7c0-2.8,1.8-4.7,4.7-4.7h63.6
        c2,0,3.4-1.4,3.4-3.4v-14.4c0-2-1.4-3.4-3.4-3.4H90.8c-2.8,0-4.7-1.8-4.7-4.7V89.9c0-2.8,1.8-4.7,4.7-4.7h61v8.3H95v15.2h6.5V100
        h53.3c2,0,3.4-1.4,3.4-3.4V82.4c0-2-1.4-3.6-3.4-3.6h-64c-7.1,0-11.5,4.7-11.5,11.1v21.5c0,6.5,4.5,11.1,11.5,11.1h60.4V130.8z"/>
</svg>
