<?xml version="1.0" encoding="UTF-8" standalone="no"?>
<!-- Created with Inkscape (http://www.inkscape.org/) -->

<svg
   width="585.30023mm"
   height="88.562187mm"
   viewBox="0 0 585.30023 88.562187"
   version="1.1"
   id="svg1"
   xml:space="preserve"
   sodipodi:docname="cosmian-kms.svg"
   xmlns:inkscape="http://www.inkscape.org/namespaces/inkscape"
   xmlns:sodipodi="http://sodipodi.sourceforge.net/DTD/sodipodi-0.dtd"
   xmlns="http://www.w3.org/2000/svg"
   xmlns:svg="http://www.w3.org/2000/svg"><sodipodi:namedview
     id="namedview1"
     pagecolor="#ffffff"
     bordercolor="#000000"
     borderopacity="0.25"
     inkscape:showpageshadow="2"
     inkscape:pageopacity="0.0"
     inkscape:pagecheckerboard="0"
     inkscape:deskcolor="#d1d1d1"
     inkscape:document-units="mm" /><defs
     id="defs1" /><g
     inkscape:label="Layer 1"
     inkscape:groupmode="layer"
     id="layer1"
     transform="translate(188.54459,-104.12642)"><g
       id="g8"><path
         style="fill:#f04510"
         d="m -146.09515,192.66108 c -8.64247,-0.51825 -15.96808,-2.90766 -22.70241,-7.40491 -6.56169,-4.38195 -11.70161,-10.24339 -15.1399,-17.2652 -1.56518,-3.19647 -2.3779,-5.36664 -3.16127,-8.44139 -1.53694,-6.03259 -1.83069,-11.32157 -0.96638,-17.39958 0.70008,-4.92305 1.99235,-9.0595 4.23903,-13.56882 2.21024,-4.43618 4.61044,-7.78865 8.09759,-11.31027 11.13058,-11.2406 27.23382,-15.67705 42.57244,-11.72872 7.74991,1.99492 14.74808,6.0199 20.40268,11.73457 13.518594,13.66218 16.660877,34.66446 7.73258,51.68269 -6.71049,12.79086 -19.40487,21.62053 -33.57784,23.35531 -2.24563,0.27486 -5.88463,0.44298 -7.49652,0.34632 z m 16.65465,-18.01854 c 2.93663,-1.10073 4.89675,-3.22613 5.65304,-6.12973 0.34498,-1.32446 0.34856,-4.11517 0.007,-5.42663 -0.78962,-3.03155 -3.17842,-5.46472 -6.25119,-6.36727 -0.82467,-0.24223 -2.27671,-0.28141 -10.42945,-0.28141 -7.78456,0 -9.50695,-0.0428 -9.67108,-0.24062 -0.14402,-0.17353 -0.18692,-2.61999 -0.15389,-8.77535 l 0.0458,-8.53472 9.96597,-0.0885 c 9.90848,-0.088 9.97181,-0.0909 10.97766,-0.49679 3.29723,-1.33056 5.36072,-3.92493 5.81353,-7.30922 0.64184,-4.79703 -1.88432,-9.04071 -6.16962,-10.36431 -1.07726,-0.33273 -1.65813,-0.35017 -11.66142,-0.35017 -11.42421,0 -11.5241,0.007 -13.47002,0.99344 -0.5071,0.25696 -1.44546,0.99184 -2.08525,1.63306 -1.464,1.46729 -2.20764,2.95479 -2.4972,4.99514 -0.11414,0.80431 -0.29022,1.5207 -0.39128,1.59198 -0.10107,0.0713 -0.50126,0.13174 -0.88932,0.13438 -3.15103,0.0214 -6.30843,2.44788 -7.68982,5.90964 l -0.42233,1.05833 -0.0543,10.21404 c -0.0351,6.61334 0.012,10.65514 0.13378,11.46528 0.57496,3.82552 3.61044,6.78192 7.58495,7.38732 l 1.49259,0.22735 0.22736,1.49259 c 0.60299,3.9587 3.51578,6.95326 7.3708,7.57771 0.48507,0.0786 5.52538,0.1278 11.20069,0.10939 10.18595,-0.033 10.33219,-0.0385 11.36299,-0.42489 z m -23.30844,-4.71991 c -1.43746,-0.71632 -2.34205,-2.21781 -2.34205,-3.8875 0,-1.22874 -0.60411,-2.5753 -1.55397,-3.46379 -0.97287,-0.91 -1.94843,-1.30726 -3.58981,-1.46182 -1.63946,-0.15438 -2.83326,-0.8907 -3.57104,-2.20258 l -0.54559,-0.97013 -0.0497,-10.03384 c -0.055,-11.11166 -0.0383,-11.31187 1.05194,-12.55355 0.78254,-0.89126 1.77486,-1.33755 3.37113,-1.51614 2.9711,-0.33241 4.54448,-1.90881 4.88499,-4.89436 0.23527,-2.06283 0.95011,-3.22543 2.44844,-3.98211 0.54096,-0.27319 1.53038,-0.29835 11.02431,-0.28038 l 10.43001,0.0198 0.9275,0.45032 c 1.00416,0.48754 1.71131,1.27434 2.08403,2.31877 0.32668,0.91543 0.31269,3.1539 -0.0259,4.1477 -0.29248,0.85839 -1.43865,2.07683 -2.32549,2.47212 -0.35476,0.15812 -3.16415,0.23912 -10.53788,0.3038 -9.94098,0.0872 -10.06234,0.0926 -10.78027,0.47664 -1.11576,0.5969 -1.71148,1.17122 -2.28063,2.1987 l -0.52105,0.94063 -0.0502,9.15024 c -0.0562,10.25389 -0.0465,10.35468 1.13587,11.73599 0.40205,0.46971 1.07313,0.96493 1.7263,1.27394 l 1.06857,0.50553 9.61319,10e-4 c 6.07769,7.1e-4 9.85483,0.0682 10.2702,0.18359 0.98265,0.2729 2.08945,1.20824 2.59656,2.1943 0.39225,0.76272 0.44981,1.09372 0.44445,2.55601 -0.007,1.88815 -0.28225,2.63618 -1.3454,3.65527 -1.19288,1.14345 -0.83851,1.11137 -12.27828,1.11137 h -10.37798 z"
         id="path11" /><path
         style="fill:#ffffff;fill-opacity:1"
         d="m -50.051403,173.69799 c -4.380986,-0.5584 -8.440958,-2.43357 -11.463393,-5.29456 -3.865312,-3.65884 -5.776788,-8.6159 -5.498358,-14.25899 0.474451,-9.61595 7.410842,-16.53385 17.699751,-17.65255 6.997115,-0.76078 13.498433,1.53102 16.982682,5.98662 0.791274,1.01187 2.021671,3.03402 1.897437,3.11843 -0.349919,0.23774 -8.107994,4.32325 -8.132735,4.28282 -1.376001,-2.24883 -2.995439,-3.68055 -5.017582,-4.43595 -1.464705,-0.54716 -5.125023,-0.53356 -6.629952,0.0246 -2.796207,1.03715 -4.742751,3.06889 -5.692828,5.94198 -0.406963,1.23067 -0.467133,1.70431 -0.470573,3.70416 -0.0035,2.04659 0.04785,2.44265 0.477925,3.68479 0.622352,1.79748 1.208257,2.78094 2.315761,3.88706 1.738744,1.73658 3.949209,2.57051 6.813539,2.57051 2.096651,0 3.554917,-0.40949 5.076423,-1.42552 1.028714,-0.68695 2.388681,-2.10243 2.82478,-2.9401 0.11364,-0.21828 0.295101,-0.39688 0.403247,-0.39688 0.108146,0 1.968825,0.96499 4.134843,2.14441 l 3.938215,2.14441 -0.441056,0.81011 c -2.391472,4.39252 -7.052746,7.3413 -12.836792,8.1207 -1.60755,0.21662 -4.61516,0.20904 -6.381334,-0.0161 z m 39.511112,-3.5e-4 c -5.578741,-0.71265 -10.737683,-3.76968 -13.684433,-8.10897 -4.412591,-6.49782 -4.047163,-15.93427 0.853299,-22.03469 2.774481,-3.45386 6.531449,-5.69188 11.30215,-6.73268 2.292015,-0.50003 6.9626481,-0.54234 9.2503868,-0.0838 7.9575822,1.59499 13.5823442,6.91328 15.1453542,14.32013 0.237524,1.12558 0.334998,2.30603 0.334998,4.05694 0,5.16471 -1.550269,9.23868 -4.850599,12.74695 -4.2896234,4.55989 -11.182232,6.75191 -18.351156,5.83611 z m 5.9211098,-8.72511 c 3.110729,-0.92348 5.25867337,-3.04431 6.2687734,-6.18966 0.4356206,-1.35648 0.5265735,-4.85638 0.168079,-6.46774 -1.01936339,-4.58184 -4.4428874,-7.34727 -9.0877301,-7.34081 -3.6148971,0.005 -6.6088021,1.73826 -8.1855431,4.73881 -0.86188,1.64016 -1.20995,3.23298 -1.199621,5.48965 0.0098,2.14878 0.298652,3.42526 1.186458,5.24378 1.513392,3.09993 4.378147,4.79638 8.115556,4.80587 1.1324109,0.003 2.1231431,-0.0986 2.7340278,-0.2799 z m 33.8545842,8.82266 c -3.442146,-0.40377 -6.048196,-0.95067 -8.437846,-1.77074 -1.435972,-0.4928 -3.991782,-1.71024 -4.159268,-1.98124 -0.116521,-0.18853 3.177,-7.34541 3.378185,-7.34085 0.0742,0.002 0.809589,0.33551 1.634207,0.74185 3.290266,1.6213 7.226565,2.51829 11.051111,2.51829 4.548862,0 6.675973,-1.04816 6.675973,-3.28968 0,-0.88885 -0.05347,-1.01976 -0.633711,-1.55151 -0.90853,-0.83261 -2.195916,-1.24958 -5.475671,-1.7735 -6.756149,-1.07926 -8.577721,-1.54124 -10.982457,-2.7853 -3.321233,-1.71819 -4.868578,-4.36576 -4.868578,-8.33031 0,-3.17839 0.808793,-5.15201 2.998479,-7.31692 1.994992,-1.97242 3.855062,-2.96264 7.120742,-3.79079 5.690309,-1.443 13.531273,-0.77971 19.109116,1.61651 0.804831,0.34575 1.46333,0.69777 1.46333,0.78227 0,0.0845 -0.762686,1.77843 -1.694856,3.76429 l -1.694856,3.61067 -1.044021,-0.52702 c -4.472352,-2.25763 -11.329638,-2.79987 -14.579808,-1.15288 -1.958817,0.99261 -2.339084,2.99153 -0.822424,4.32318 0.832897,0.73129 2.379932,1.17082 6.606798,1.87707 5.997824,1.00215 8.225503,1.65832 10.49408,3.09105 2.773199,1.75144 4.048874,4.26694 4.019013,7.92509 -0.04624,5.66431 -4.358082,9.68568 -11.837108,11.03967 -1.462586,0.26479 -6.983335,0.47764 -8.32043,0.3208 z m 127.440977,-0.009 c -4.21506,-0.65552 -7.47887,-2.43635 -9.26135,-5.05326 -1.1639,-1.70875 -1.59728,-3.01923 -1.71496,-5.18577 -0.1198,-2.20559 0.12459,-3.58794 0.93422,-5.28436 1.13205,-2.37195 3.40078,-4.1654 6.54871,-5.1768 2.59164,-0.83267 4.97035,-1.05783 11.17533,-1.05783 6.20342,0 5.61179,0.18565 5.27167,-1.65426 -0.51645,-2.79372 -2.17886,-4.57244 -4.98727,-5.33618 -3.78152,-1.02839 -9.67015,0.0675 -13.13812,2.44506 -0.41913,0.28734 -0.78355,0.49494 -0.80983,0.46134 -0.0263,-0.0336 -0.8728,-1.6659 -1.88114,-3.62732 -2.12357,-4.13073 -2.18636,-3.55589 0.5426,-4.96761 6.00158,-3.1047 14.69955,-3.90217 20.99028,-1.92449 4.33228,1.36198 7.55379,4.42858 8.90172,8.47367 0.90609,2.71917 0.97389,3.84138 0.97501,16.13986 l 0.001,11.33298 h -4.85069 -4.8507 v -2.20486 c 0,-1.21267 -0.0659,-2.20486 -0.14648,-2.20486 -0.0806,0 -0.40641,0.36194 -0.7241,0.8043 -1.19908,1.6697 -3.5729,3.08879 -6.18497,3.69744 -1.29138,0.3009 -5.61164,0.50636 -6.79097,0.32295 z m 7.75494,-7.21174 c 2.18525,-0.56919 4.01127,-1.97442 4.90809,-3.7771 0.43156,-0.86744 0.47794,-1.14702 0.47794,-2.88085 v -1.92018 l -4.89479,0.069 c -4.38739,0.0618 -5.00963,0.10729 -6.00263,0.43869 -2.15467,0.71909 -3.02625,1.83796 -3.03343,3.89406 -0.007,2.11215 1.37068,3.71706 3.65346,4.25487 1.09323,0.25757 3.76586,0.21469 4.89136,-0.0785 z m 213.52492,7.02809 c -1.49258,-0.15717 -4.5419,-0.81407 -6.018,-1.29644 -1.74523,-0.57031 -4.22295,-1.73542 -4.98823,-2.34564 l -0.48012,-0.38283 1.27777,-2.42473 c 0.70277,-1.3336 1.33554,-2.42473 1.40615,-2.42473 0.0706,0 0.67114,0.30959 1.3345,0.68799 1.61212,0.91957 4.16395,1.84799 6.41724,2.33473 2.46043,0.53149 7.38419,0.57862 9.154,0.0876 3.10999,-0.86281 4.37079,-2.29237 4.21261,-4.77647 -0.0823,-1.29233 -0.365,-1.79592 -1.49544,-2.66383 -1.17495,-0.90208 -2.74212,-1.31814 -9.32117,-2.47462 -7.79898,-1.37091 -11.1239,-3.8016 -11.76614,-8.60164 -1.0436,-7.79977 6.33215,-13.02339 17.09895,-12.10973 3.79112,0.32171 7.76613,1.3872 10.08138,2.70229 l 0.7016,0.39851 -1.33516,2.48383 -1.33516,2.48382 -1.78385,-0.84864 c -0.98111,-0.46675 -2.39482,-1.0073 -3.14156,-1.20122 -4.02782,-1.04599 -8.59011,-0.87546 -11.3364,0.42374 -3.32832,1.57455 -3.69031,5.47098 -0.6813,7.3334 1.02994,0.63748 3.11777,1.22594 6.58444,1.85584 5.71382,1.03821 8.1416,1.72272 10.03015,2.82799 1.08134,0.63285 2.55748,2.04267 3.08976,2.95095 0.88272,1.50623 1.29718,3.92554 0.99575,5.8124 -0.78738,4.92879 -4.64931,8.03278 -11.22797,9.02435 -1.58108,0.23831 -5.80191,0.3191 -7.4738,0.14306 z M 56.222904,155.11458 v -18.25625 h 4.938889 4.938889 v 2.13302 2.13301 l 0.926041,-0.83797 c 2.250897,-2.03681 4.820105,-3.23611 7.967667,-3.71927 5.636505,-0.86524 11.047936,0.9956 14.045724,4.82992 l 0.721421,0.92273 0.98029,-1.05883 c 1.937033,-2.09222 5.001909,-3.76745 8.255385,-4.51231 2.11868,-0.48505 6.17063,-0.44523 8.29028,0.0815 4.76704,1.18455 7.97177,4.11217 9.54127,8.71623 0.90017,2.64059 0.95239,3.52481 0.95316,16.13873 l 7.1e-4,11.68576 h -5.20348 -5.20347 v -10.41438 c 0,-11.47379 -0.0478,-12.10192 -1.0773,-14.14124 -0.98955,-1.9603 -2.42141,-2.96552 -4.73558,-3.32457 -3.456531,-0.5363 -6.801047,1.08384 -8.218608,3.98123 -1.040871,2.12746 -1.023719,1.91772 -1.092512,13.35973 l -0.06337,10.53923 H 87.004802 81.82129 L 81.7494,162.56701 c -0.05249,-7.88786 -0.131814,-11.04185 -0.293912,-11.68576 -0.337756,-1.34168 -1.15378,-2.94011 -1.885735,-3.69378 -1.921006,-1.97799 -5.636061,-2.35849 -8.650953,-0.88603 -1.490263,0.72784 -2.517341,1.78671 -3.244646,3.34509 -0.991266,2.12396 -1.044306,2.82236 -1.044306,13.75089 v 9.97341 h -5.203472 -5.203472 z m 71.261116,0 v -18.25625 h 5.29166 5.29167 v 18.25625 18.25625 h -5.29167 -5.29166 z m 62.44166,0 v -18.25625 h 5.02709 5.02708 v 2.11667 c 0,1.16417 0.0489,2.11667 0.10872,2.11667 0.0598,0 0.56317,-0.41672 1.11863,-0.92605 3.68296,-3.37709 9.91244,-4.6708 15.57464,-3.23446 2.64463,0.67087 4.32212,1.62363 6.24269,3.54566 1.37148,1.37252 1.73371,1.86373 2.41545,3.27552 1.7334,3.5896 1.88015,5.05414 1.88015,18.76362 v 10.85487 h -5.29167 -5.29167 l -0.003,-10.62743 c -0.002,-8.79436 -0.048,-10.81982 -0.26557,-11.74287 -0.88673,-3.76131 -3.24638,-5.5783 -7.22835,-5.56601 -2.59844,0.008 -4.75896,0.84567 -6.3158,2.4487 -0.8529,0.87821 -1.40319,1.84463 -1.90796,3.35081 -0.4128,1.23176 -0.41393,1.2598 -0.46848,11.68576 l -0.0547,10.45104 h -5.28383 -5.28383 z m 67.73334,-6.87916 V 123.1 h 3.17407 3.17408 l 0.045,16.15229 0.045,16.15228 9.86561,-9.00853 9.86561,-9.00854 3.80453,0.008 3.80453,0.008 -7.5445,7.44453 -7.54451,7.44453 7.52046,9.525 c 4.13626,5.23875 7.87327,9.98141 8.30447,10.53924 l 0.784,1.01423 -3.93496,-0.009 -3.93496,-0.009 -6.70278,-8.36174 c -3.68653,-4.59896 -6.75784,-8.36528 -6.82515,-8.36961 -0.0673,-0.004 -1.79371,1.54699 -3.83646,3.44739 l -3.71408,3.45527 v 4.9232 4.9232 h -3.175 -3.175 z m 41.45139,7.14375 V 137.3875 h 2.99861 2.99861 v 2.64583 c 0,1.45521 0.034,2.64584 0.0756,2.64584 0.0416,0 0.73611,-0.658 1.54341,-1.46222 2.37224,-2.3632 5.1724,-3.60336 9.05253,-4.00925 5.5151,-0.57693 10.61462,1.29009 13.30379,4.87072 0.44402,0.59123 0.88915,1.21641 0.98917,1.3893 0.1597,0.27605 0.27786,0.18961 0.97014,-0.70965 1.644,-2.13555 5.0154,-4.24944 7.99093,-5.01035 4.88679,-1.24966 10.27711,-0.61807 13.72076,1.60767 2.28195,1.47489 4.09791,3.8332 5.00911,6.5051 0.92982,2.72652 0.96679,3.33425 0.96679,15.89178 v 11.61856 h -3.175 -3.175 v -10.92059 c 0,-12.15735 -0.0369,-12.64333 -1.13514,-14.95594 -1.58015,-3.32735 -4.35651,-4.77032 -8.83083,-4.58969 -2.26817,0.0916 -3.92819,0.54516 -5.46248,1.49263 -1.70175,1.05088 -3.11824,2.83944 -3.90577,4.9317 -0.85066,2.26 -0.94833,3.73074 -0.94946,14.29641 l -10e-4,9.74548 h -3.16664 -3.16664 l -0.0591,-11.42118 c -0.0528,-10.1993 -0.0919,-11.5344 -0.36495,-12.47951 -1.02574,-3.54967 -3.05541,-5.61852 -6.24975,-6.37037 -1.80395,-0.4246 -5.01251,-0.26331 -6.72743,0.33819 -3.24959,1.13977 -5.41111,3.54166 -6.41258,7.12571 -0.37215,1.33183 -0.38644,1.71923 -0.44601,12.09154 l -0.0615,10.71562 h -3.16503 -3.16503 z M 130.47298,131.32031 c -2.6273,-1.00771 -4.01289,-2.68315 -4.18341,-5.05853 -0.1743,-2.42789 0.91548,-4.3689 3.07834,-5.48286 3.42676,-1.76491 7.84878,-0.59938 9.35383,2.46544 0.41439,0.84385 0.49214,1.22567 0.49214,2.41699 0,1.24157 -0.0706,1.55831 -0.57689,2.58664 -0.6624,1.34553 -1.46314,2.1214 -2.85465,2.766 -0.82143,0.38051 -1.27498,0.46063 -2.83027,0.49997 -1.24341,0.0315 -2.05814,-0.0322 -2.47909,-0.19365 z"
         id="path9"
         inkscape:export-filename="path9.svg"
         inkscape:export-xdpi="96"
         inkscape:export-ydpi="96" /></g></g></svg>
