<?xml version="1.0" encoding="UTF-8"?>
<svg xmlns="http://www.w3.org/2000/svg" width="260" height="63" viewBox="0 0 260 63" fill="none">
  <path fill-rule="evenodd" clip-rule="evenodd" d="M194.676 14.5654C194.676 12.4719 193.181 10.9766 191.088 10.9766C188.994 10.9766 187.498 12.4719 187.498 14.5654C187.498 16.6588 188.994 18.1542 191.088 18.1542C193.181 18.1542 194.676 16.6588 194.676 14.5654ZM188.246 44.1726H194.079V21.1447H188.246V44.1726ZM253.15 44.1642H247.319V31.6035C247.319 27.7157 245.525 25.6222 242.086 25.6222C238.647 25.6222 236.105 28.1642 236.105 32.0521V44.1642H230.272V21.1362H236.105V24.426C237.45 22.0334 239.993 20.5381 243.432 20.5381C249.413 20.5381 253.15 24.426 253.15 31.1549V44.1642ZM223.988 21.4371V44.166H218.157V41.0258C216.661 43.5678 213.819 44.9135 210.68 44.9135C204.25 44.9135 199.465 39.5305 199.465 32.8016C199.316 26.0727 204.25 20.5399 210.68 20.6895C213.819 20.6895 216.661 22.0352 218.157 24.5774V21.4371H223.988ZM211.428 25.624C209.483 25.624 207.838 26.2221 206.643 27.7175C205.447 29.0632 204.847 30.7081 204.847 32.8016C204.847 36.6893 207.54 39.8296 211.428 39.8296C215.316 39.8296 218.007 36.9884 218.007 32.8016C218.007 28.3156 215.316 25.624 211.428 25.624ZM181.668 44.1644H175.986V31.6037C175.986 27.7159 174.341 25.6224 171.35 25.6224C168.36 25.6224 166.117 28.314 166.117 32.2019V44.3138H160.285V31.7532C160.285 27.8653 158.64 25.7718 155.649 25.7718C154.154 25.7718 152.809 26.37 151.912 27.5662C151.015 28.9121 150.416 30.4075 150.416 32.2019V44.3138H144.585V21.1364H150.416V24.4261C151.761 22.0336 154.154 20.5383 156.996 20.5383C160.584 20.5383 163.275 22.1832 164.771 25.0243C166.266 22.1832 168.959 20.5383 172.547 20.5383C178.229 20.5383 181.668 24.4261 181.668 31.155V44.1644ZM128.887 39.9804C125.896 39.9804 123.354 38.6347 122.158 36.6909L117.523 38.9338C118.42 40.4291 119.915 41.7748 121.859 42.8216C123.803 43.8683 126.046 44.4664 128.588 44.4664C134.719 44.4664 139.354 41.4758 139.354 37.1394C139.354 33.7002 136.962 31.6067 132.177 30.5601L128.737 29.8123C125.149 29.0647 124.251 28.4666 124.251 27.1207C124.251 25.775 126.046 24.8778 128.588 24.8778C131.13 24.8778 133.672 26.0741 134.719 27.7189L139.055 25.3263C138.158 23.831 136.812 22.7843 135.018 21.7377C133.223 20.6909 131.13 20.2424 128.887 20.2424C123.055 20.2424 118.868 23.2329 118.868 27.5694C118.868 31.0086 121.261 33.1021 126.046 34.1487L129.485 34.8965C133.074 35.7937 133.971 36.3918 133.971 37.7375C133.971 39.0832 131.728 39.9804 128.887 39.9804ZM101.972 20.3906C109 20.3906 114.233 25.6244 114.233 32.5027C114.233 39.3813 109 44.6149 101.972 44.6149C95.093 44.7643 89.5604 39.2317 89.71 32.5027C89.5604 25.7738 95.093 20.3906 101.972 20.3906ZM101.972 25.6244C98.0837 25.6244 95.3921 28.6149 95.3921 32.5027C95.3921 34.5962 95.9902 36.0915 97.1865 37.5869C98.5324 38.7831 100.028 39.5307 101.972 39.5307C104.065 39.5307 105.56 38.9326 106.757 37.5869C108.102 36.241 108.7 34.5962 108.7 32.5027C108.7 28.6149 106.009 25.6244 101.972 25.6244ZM86.5669 25.7738C84.4734 22.4841 80.5855 20.3906 76.2491 20.3906C69.2212 20.3906 63.838 25.7738 63.9874 32.8018C63.838 39.5307 69.3706 45.0634 76.2491 44.9139C80.735 44.9139 84.4734 42.8205 86.5669 39.5307L81.7818 36.6897C80.5855 38.4841 78.6417 39.5307 76.2491 39.5307C74.3051 39.5307 72.8098 38.9326 71.4641 37.5869C70.2678 36.0915 69.6697 34.5962 69.6697 32.5027C69.6697 28.6149 72.3613 25.6244 76.2491 25.6244C78.6417 25.6244 80.5855 26.8206 81.7818 28.4654L86.5669 25.7738Z" fill="white"/>
  <circle cx="26.959" cy="32.0694" r="26.7208" fill="#F14611"/>
  <path d="M35.0428 48.0962H23.6694C20.7918 48.0962 18.3938 45.7278 18.3938 42.8856C18.3938 42.6826 18.1882 42.4795 17.9827 42.4795C15.0365 42.4795 12.707 40.1111 12.707 37.2689V25.968C12.707 23.1258 15.105 20.7573 17.9827 20.7573C18.2567 20.7573 18.3938 20.5543 18.3938 20.3513C18.3938 17.5091 20.7918 15.1406 23.6694 15.1406H35.0428C37.9205 15.1406 40.3185 17.5091 40.3185 20.3513V21.028C40.3185 23.8701 37.9205 26.2386 35.0428 26.2386H24.286C24.0804 26.2386 23.8749 26.4416 23.8749 26.6446V36.5245C23.8749 36.7276 24.0804 36.9306 24.286 36.9306H34.9743C37.8519 36.9306 40.2499 39.299 40.2499 42.1412V42.8179C40.3185 45.7278 37.989 48.0962 35.0428 48.0962ZM23.6694 17.6444C22.1621 17.6444 20.9973 18.8625 20.9973 20.2836C20.9973 21.9754 19.627 23.2611 17.9827 23.2611C16.4753 23.2611 15.3106 24.4792 15.3106 25.9003V37.1335C15.3106 38.6223 16.5439 39.7728 17.9827 39.7728C19.6955 39.7728 20.9973 41.1261 20.9973 42.7502C20.9973 44.239 22.2306 45.3894 23.6694 45.3894H35.0428C36.5502 45.3894 37.7149 44.1714 37.7149 42.7502V42.0735C37.7149 40.5848 36.4816 39.4344 35.0428 39.4344H24.286C22.5732 39.4344 21.2713 38.0809 21.2713 36.4569V26.6446C21.2713 24.9529 22.6417 23.6671 24.286 23.6671H34.9743C36.4816 23.6671 37.6464 22.4491 37.6464 21.028V20.3513C37.6464 18.8625 36.4131 17.7121 34.9743 17.7121H23.6694V17.6444Z" fill="white"/>
</svg>
